<?xml version="1.0" encoding="utf-8"?>
<!-- Generator: Adobe Illustrator 15.1.0, SVG Export Plug-In  -->
<!DOCTYPE svg PUBLIC "-//W3C//DTD SVG 1.1//EN" "http://www.w3.org/Graphics/SVG/1.1/DTD/svg11.dtd" [
	<!ENTITY ns_flows "http://ns.adobe.com/Flows/1.0/">
]>
<svg version="1.1"
	 xmlns="http://www.w3.org/2000/svg" xmlns:xlink="http://www.w3.org/1999/xlink" xmlns:a="http://ns.adobe.com/AdobeSVGViewerExtensions/3.0/"
	 x="0px" y="0px" width="112px" height="94px" viewBox="0 0 112 94" enable-background="new 0 0 112 94" xml:space="preserve">
<defs>
</defs>
<g id="bubble_x5F_speech_1_" opacity="0.302">
	<g>
		<path fill-rule="evenodd" clip-rule="evenodd" fill="#CDCCCC" d="M57.508,0c-35,0-57,6.5-57.5,40.5
			c-0.327,22.254,9.416,33.153,26,37.889l-4,15.111l18.009-12.606c5.409,0.523,11.255,0.695,17.491,0.606c35-0.5,54-10,54-38.5
			S93.508,0,57.508,0z"/>
	</g>
</g>
<g id="_x2E_.._1_">
	<g>
		<path fill-rule="evenodd" clip-rule="evenodd" fill="#CDCCCC" d="M33.258,32c-4.004,0-7.25,3.246-7.25,7.25
			c0,4.004,3.246,7.25,7.25,7.25c4.004,0,7.25-3.246,7.25-7.25C40.508,35.246,37.262,32,33.258,32z M55.758,32
			c-4.004,0-7.25,3.246-7.25,7.25c0,4.004,3.246,7.25,7.25,7.25s7.25-3.246,7.25-7.25C63.008,35.246,59.762,32,55.758,32z
			 M78.258,32c-4.004,0-7.25,3.246-7.25,7.25c0,4.004,3.246,7.25,7.25,7.25s7.25-3.246,7.25-7.25C85.508,35.246,82.262,32,78.258,32
			z"/>
	</g>
</g>
</svg>
