<?xml version="1.0" encoding="utf-8"?>
<!-- Generator: Adobe Illustrator 15.1.0, SVG Export Plug-In  -->
<!DOCTYPE svg PUBLIC "-//W3C//DTD SVG 1.1//EN" "http://www.w3.org/Graphics/SVG/1.1/DTD/svg11.dtd" [
	<!ENTITY ns_flows "http://ns.adobe.com/Flows/1.0/">
]>
<svg version="1.1"
	 xmlns="http://www.w3.org/2000/svg" xmlns:xlink="http://www.w3.org/1999/xlink" xmlns:a="http://ns.adobe.com/AdobeSVGViewerExtensions/3.0/"
	 x="0px" y="0px" width="279px" height="263px" viewBox="0 0 279 263" enable-background="new 0 0 279 263" xml:space="preserve">
<defs>
</defs>
<g id="shadow_1_" opacity="0.2">
	<g>
		<ellipse fill-rule="evenodd" clip-rule="evenodd" fill="#010101" cx="129.075" cy="212.101" rx="71" ry="22"/>
	</g>
</g>
<g id="wing_2_">
	<g>
		<path fill-rule="evenodd" clip-rule="evenodd" fill="#79C143" d="M240.878,125.566c38.144-14.292,42.748-37.661,36.046-48.313
			c-1.981-3.15-4.637,9.45-24.37,20.589c29.745-22.856,27.948-45.306,19.034-53.568c-2.006-1.858-2.166,4.59-8.521,14.432
			c9.014-20.539,2.507-34.795-6.011-39.29c-5.393-2.846,8.794,31.824-57.786,74.535c-4.44,2.849-9.645,7.439-14.542,12.554
			c-5.778,3.097-11.784,6.983-16.832,10.869c-0.164,0.052-0.328,0.105-0.491,0.158c-25.274-3.31-64.609,1.926-24.751,16.084
			c1.13,1.556,4.381,2.759,10.461,3.371c3.971,1.176,8.418,2.401,13.42,3.68c85.188,21.771,108.414-10.195,104.488-26.782
			C270.161,110.24,263.492,121.467,240.878,125.566z"/>
	</g>
</g>
<g id="body_2_">
	<g>
		<path fill-rule="evenodd" clip-rule="evenodd" fill="#1E2F30" d="M90.077,206.101c-10.137-2.211-8.246-7.062-10.698-0.71
			c-1.823,4.723-1.337,11.991,11.12,14.709c3.15,0.688,5.742,0.464,7.862-0.247c8.229-1.705,10.144-10.087,10.144-10.087
			s-2.845-0.483-9.674-1.338C96.375,207.654,93.429,206.832,90.077,206.101z M148.075,12.101c-2.462-3.245-14,2-14,2
			s7.58-12.433,4-14c-3.58-1.566-25.734,15.308-28,34s27.96,19.155,26,6C134.115,26.947,150.537,15.346,148.075,12.101z
			 M170.772,205.391c-2.452-6.352-0.561-1.501-10.697,0.71c-3.353,0.731-6.298,1.554-8.755,2.327
			c-6.829,0.854-9.673,1.338-9.673,1.338s1.913,8.382,10.144,10.087c2.119,0.711,4.711,0.935,7.861,0.247
			C172.109,217.382,172.597,210.113,170.772,205.391z"/>
	</g>
</g>
<g id="tune_1_">
	<g>
		<path fill-rule="evenodd" clip-rule="evenodd" fill="#CDCCCC" d="M50.795,44.331c-0.036-0.137-0.089-0.265-0.133-0.398
			c-0.014-0.084-0.019-0.169-0.041-0.253L41.449,9.452c-0.376-1.403-1.818-2.236-3.222-1.86l-0.966,0.259
			c-0.087,0.023-0.164,0.063-0.246,0.094C27.002,10.917,18.432,19.277,8.347,21.979c0.009,0.031,0.017,0.063,0.025,0.094
			l-0.483,0.129c-1.403,0.376-2.235,1.818-1.86,3.222l7.244,27.033c-1.521-0.169-3.138-0.068-4.763,0.368
			c-5.846,1.566-9.541,6.728-8.254,11.529c1.286,4.801,7.067,7.423,12.912,5.857c5.845-1.566,9.54-6.728,8.254-11.529
			c-0.036-0.137-0.09-0.265-0.133-0.398c-0.015-0.084-0.019-0.168-0.042-0.252l-7.265-27.114c8.089-3.072,15.354-9.22,23.443-12.292
			l5.22,19.479c-1.521-0.169-3.138-0.068-4.763,0.368c-5.845,1.565-9.541,6.728-8.254,11.529c1.286,4.801,7.067,7.423,12.912,5.857
			C48.387,54.293,52.082,49.131,50.795,44.331z"/>
	</g>
</g>
<g id="body_1_">
	<g>
		<path fill-rule="evenodd" clip-rule="evenodd" fill="#69BD45" d="M129.075,23.852c-58.5,0-99,93.499-80,150
			c19,56.5,140.5,52,160-2C228.575,117.851,187.575,23.852,129.075,23.852z"/>
	</g>
</g>
<g id="beak_3_">
	<g>
		<path fill-rule="evenodd" clip-rule="evenodd" fill="#FEBB15" d="M128.075,43.102c-11.046,0-20,33.432-20,50s10.971,30,20,30
			c9.03,0,20-13.432,20-30S139.12,43.102,128.075,43.102z"/>
	</g>
</g>
<g id="beak_2_">
	<g>
		<path fill-rule="evenodd" clip-rule="evenodd" fill="#1E2F30" d="M128.076,62.103c0,0-16,17.411-16,30.574
			c0,13.164,9.479,23.426,16,23.426s16-10.262,16-23.426C144.076,79.514,128.076,62.103,128.076,62.103z"/>
	</g>
</g>
<g id="beak_1_">
	<g>
		<path fill-rule="evenodd" clip-rule="evenodd" fill="#EF4123" d="M128.076,87.103c-6.075,0-11,3.806-11,8.5s6,15.5,11,15.5
			s11-10.806,11-15.5S134.151,87.103,128.076,87.103z"/>
	</g>
</g>
<g id="microphone_1_">
	<g>
		<path fill-rule="evenodd" clip-rule="evenodd" fill="#1E2F30" d="M114.076,242.009v-92.374l2.08-0.924
			c1.406-0.625,2.699-1.407,3.85-2.28c3.175,1.099,6.789,0.875,9.926-0.937c5.739-3.313,7.706-10.652,4.392-16.392
			c-3.313-5.74-10.652-7.706-16.392-4.393c-3.138,1.812-5.138,4.829-5.774,8.128c-1.332,0.56-2.656,1.289-3.9,2.194l-21.188,15.424
			c-2.06,1.5-2.648,4.213-1.503,6.197l0.519,0.898c1.146,1.983,3.789,2.83,6.117,1.796l15.872-7.048v89.735
			c-16.856,0.552-30,5.044-30,10.505c0,5.834,14.998,10.563,33.5,10.563s33.5-4.729,33.5-10.563
			C145.076,246.971,131.409,242.412,114.076,242.009z"/>
	</g>
</g>
<g id="Ellipse_2_">
	<g>
		<path fill-rule="evenodd" clip-rule="evenodd" fill="#1E2F30" d="M175.453,68.419c-1.695,5.365-6.683,9.255-12.576,9.255
			c-7.155,0-12.968-5.736-13.179-12.888c-0.401,1.271-0.622,2.625-0.622,4.03c0,7.338,5.909,13.286,13.198,13.286
			c7.29,0,13.199-5.948,13.199-13.286C175.474,68.683,175.457,68.552,175.453,68.419z"/>
	</g>
</g>
<g id="Ellipse_1_">
	<g>
		<path fill-rule="evenodd" clip-rule="evenodd" fill="#1E2F30" d="M106.453,63.786c-0.211,7.151-6.022,12.888-13.179,12.888
			c-5.893,0-10.88-3.889-12.576-9.255c-0.004,0.133-0.02,0.264-0.02,0.397c0,7.338,5.909,13.286,13.198,13.286
			c7.29,0,13.199-5.948,13.199-13.286C107.076,66.411,106.855,65.058,106.453,63.786z"/>
	</g>
</g>
<g id="wing_1_">
	<g>
		<path fill-rule="evenodd" clip-rule="evenodd" fill="#79C143" d="M140.913,172.89c7.252-10.055-0.575-28.297-25.46-36.42
			s-54.367,6.584-64.111-35.514c0,0-9.564,20.683-8.65,44.031c0.914,23.348,9.41,40.134,20.586,42.887s8.839-9.708,26.625-9.684
			s26.408,14.363,29.63,20.52c9.565-15.532-5.806-31.215-5.806-31.215s20.841,6.98,14.399,26.725
			c22.363-20.206,2.738-33.823,2.738-33.823S139.725,166.446,140.913,172.89z"/>
	</g>
</g>
</svg>
