<?xml version="1.0" encoding="utf-8"?>
<!-- Generator: Adobe Illustrator 15.1.0, SVG Export Plug-In  -->
<!DOCTYPE svg PUBLIC "-//W3C//DTD SVG 1.1//EN" "http://www.w3.org/Graphics/SVG/1.1/DTD/svg11.dtd" [
	<!ENTITY ns_flows "http://ns.adobe.com/Flows/1.0/">
]>
<svg version="1.1"
	 xmlns="http://www.w3.org/2000/svg" xmlns:xlink="http://www.w3.org/1999/xlink" xmlns:a="http://ns.adobe.com/AdobeSVGViewerExtensions/3.0/"
	 x="0px" y="0px" width="275px" height="262px" viewBox="0 0 275 262" enable-background="new 0 0 275 262" xml:space="preserve">
<defs>
</defs>
<g id="shadow_1_" opacity="0.2">
	<g>
		<path fill-rule="evenodd" clip-rule="evenodd" fill="#1E2F30" d="M159.357,212.1c0-12.15-31.788-22-71-22s-71,9.85-71,22
			c0,12.15,31.788,22,71,22S159.357,224.25,159.357,212.1z M274.931,249.795c-0.264-1.445-0.525-2.883-0.786-4.311
			c-0.847-4.641-5.272-8.357-9.901-8.383H117.731c-4.629,0.025-9.056,3.742-9.902,8.383c-0.26,1.428-0.522,2.865-0.786,4.311
			c-0.88,4.828,2.254,9.166,7.036,9.546c51.002,3.761,102.814,3.761,153.817,0C272.677,258.961,275.811,254.624,274.931,249.795z"/>
	</g>
</g>
<g id="body_4_">
	<g>
		<path fill-rule="evenodd" clip-rule="evenodd" fill="#1E2F30" d="M49.359,206.101c-10.136-2.211-8.245-7.062-10.698-0.71
			c-1.824,4.722-1.336,11.991,11.12,14.709c3.151,0.688,5.743,0.464,7.862-0.247c8.229-1.705,10.144-10.087,10.144-10.087
			s-2.844-0.483-9.674-1.338C55.657,207.653,52.711,206.832,49.359,206.101z M107.357,12.101c-2.461-3.244-14,2-14,2
			s7.58-12.433,4-13.999s-25.734,15.307-28,34c-2.266,18.693,27.96,19.155,26,6C93.397,26.946,109.819,15.345,107.357,12.101z
			 M130.055,205.39c-2.452-6.352-0.561-1.501-10.697,0.71c-3.353,0.731-6.298,1.553-8.755,2.327
			c-6.829,0.854-9.673,1.338-9.673,1.338s1.914,8.382,10.144,10.087c2.119,0.711,4.711,0.935,7.861,0.247
			C131.392,217.381,131.879,210.112,130.055,205.39z"/>
	</g>
</g>
<g id="body_3_">
	<g>
		<path fill-rule="evenodd" clip-rule="evenodd" fill="#69BD45" d="M87.357,23.851c-58.5,0-99,93.5-80,150c19,56.5,140.5,52,160-2
			C186.857,117.85,145.857,23.851,87.357,23.851z"/>
	</g>
</g>
<g id="ticket_1_">
	<g>
		<path fill-rule="evenodd" clip-rule="evenodd" fill="#FFFFFF" d="M58.358,120.102c0,0-1,25.6-6,45c-5,19.4-19,32-19,32
			s6.2,4.2,16,6c9.8,1.8,14,1,14,1s16.4-15.4,22-42c3.4-20.2,10-26.8,11-32C75.558,128.702,78.958,119.102,58.358,120.102z"/>
	</g>
</g>
<g id="Shape_2_">
	<g>
		<path fill-rule="evenodd" clip-rule="evenodd" fill="#D7C9C9" d="M61.358,146.102c-2,7.5-6.269,36.204-20,49c0,0,11.01,5.28,20,4
			c16.361-16.429,18.5-34.25,21-48C75.108,150.852,70.108,145.352,61.358,146.102z"/>
	</g>
</g>
<g id="Rectangle_9_">
	<g>
		<path fill-rule="evenodd" clip-rule="evenodd" fill="#146D85" d="M83.209,136.132l-0.353-0.11
			c-0.111-0.035-0.29,0.015-0.412,0.123l-1.725,1.521l-5.078-1.585c0.308-0.346,0.598-0.732,0.831-1.134l2.787-4.816
			c0.176-0.304,0.086-0.593-0.183-0.677l-0.852-0.266c-0.269-0.084-0.702,0.042-0.998,0.309l-4.687,4.223
			c-0.392,0.353-0.728,0.724-1.001,1.081l-5.583-1.743c-0.557-0.174-1.148,0.158-1.321,0.742l-0.104,0.353
			c-0.173,0.584,0.139,1.199,0.695,1.373l5.583,1.743c0.034,0.453,0.113,0.954,0.248,1.471l1.61,6.188
			c0.102,0.392,0.394,0.744,0.662,0.828l0.852,0.266c0.269,0.084,0.5-0.105,0.519-0.458l0.29-5.595
			c0.024-0.468-0.008-0.954-0.076-1.418l5.078,1.585l0.611,2.25c0.043,0.158,0.165,0.302,0.276,0.337l0.353,0.11
			c0.111,0.035,0.206-0.042,0.213-0.185l0.105-2.265c0.018-0.384-0.053-0.802-0.176-1.101l0.038-0.129
			c0.264-0.178,0.545-0.471,0.738-0.799l1.138-1.943C83.358,136.284,83.32,136.167,83.209,136.132z"/>
	</g>
</g>
<g id="wing_3_">
	<g>
		<path fill-rule="evenodd" clip-rule="evenodd" fill="#79C143" d="M90.333,158.936c-12.451-3.846-35.146-8.771-56.435-21.964
			c-16.747-10.377-27.25-28.45-27.25-28.45c-0.049,0.69-0.182,1.72-0.353,2.985c-0.299,0.043-0.589,0.391-0.865,1.111
			c-4.908,12.778-6.932,35.865-4.213,46.938c3.517,14.323,15.792,21.954,26.01,23.425c9.334,1.343,15.688-2.763,15.688-2.763
			l-16.128-17.29c5.365,5.452,14.715,14.086,21.09,15.164c22.604,3.819,23.839-2.4,23.839-2.4s-3.862-2.841-9.702-7.08
			C78.507,174.01,109.71,164.923,90.333,158.936z"/>
	</g>
</g>
<g id="eye_2_">
	<g>
		<ellipse fill-rule="evenodd" clip-rule="evenodd" fill="#FFFFFF" cx="53.357" cy="82.101" rx="22" ry="26"/>
	</g>
</g>
<g id="eye_1_">
	<g>
		<ellipse fill-rule="evenodd" clip-rule="evenodd" fill="#FFFFFF" cx="122.357" cy="82.101" rx="21" ry="26"/>
	</g>
</g>
<g id="beak_1_">
	<g>
		<path fill-rule="evenodd" clip-rule="evenodd" fill="#FEBB15" d="M87.358,60.101c-11.046,0-20,13.432-20,29.999
			c0,16.569,20,30.001,20,30.001s20-13.432,20-30.001C107.357,73.533,98.403,60.101,87.358,60.101z"/>
	</g>
</g>
<g id="pupils_1_">
	<g>
		<path fill-rule="evenodd" clip-rule="evenodd" fill="#1E2F30" d="M119.395,78.101c-3.293,0-5.963,3.134-5.963,7
			c0,3.865,2.669,7,5.963,7s5.963-3.135,5.963-7C125.357,81.235,122.688,78.101,119.395,78.101z M57.32,78.101
			c-3.293,0-5.962,3.134-5.962,7c0,3.865,2.669,7,5.962,7s5.963-3.135,5.963-7C63.283,81.235,60.614,78.101,57.32,78.101z"/>
	</g>
</g>
<g id="wing_2_">
	<g>
		<path fill-rule="evenodd" clip-rule="evenodd" fill="#69BD45" d="M202.358,94.102c0,0-51,15-51,17c0,2,1.5,12.5,4,20s36.5,23,49,9
			S202.358,94.102,202.358,94.102z"/>
	</g>
</g>
<g id="Rectangle_8_">
	<g>
		<path fill-rule="evenodd" clip-rule="evenodd" fill="#955A25" d="M260.479,128.335c-46.377-3.233-92.932-3.233-139.253,0
			c-4.899,0.347-8.868,4.644-8.868,9.544v90.337c0,4.901,3.976,8.88,8.879,8.886c46.37,0,92.805-0.004,139.23-0.004
			c4.91-0.006,8.891-3.984,8.891-8.885v-90.334C269.358,132.979,265.384,128.682,260.479,128.335z"/>
	</g>
</g>
<g id="Rectangle_7_">
	<g>
		<path fill-rule="evenodd" clip-rule="evenodd" fill="#713F19" d="M268.923,155.742c-0.001-4.938-3.937-8.64-8.805-8.309
			c-46.024,3.22-92.962,3.22-138.961,0c-4.865-0.332-8.798,3.371-8.799,8.309c0,30.26,0.17,59.995,0.17,90.387
			c0,4.958,3.971,8.974,8.87,8.968h139.084c4.901,0.006,8.875-4.01,8.874-8.968C269.357,215.737,268.923,186.001,268.923,155.742z"
			/>
	</g>
</g>
<g id="Rectangle_6_">
	<g>
		<path fill-rule="evenodd" clip-rule="evenodd" fill="#955A25" d="M145.363,145.987c-3.995-0.292-7.991-0.556-11.989-0.788
			c-1.656-0.097-2.999,1.162-2.999,2.803c-0.005,30.709-0.011,73.418-0.016,104.127c0,1.643,1.342,2.973,2.999,2.972h12
			c1.657-0.001,3-1.314,3-2.936V149.148C148.358,147.527,147.018,146.108,145.363,145.987z M251.343,148.002
			c0-1.642-1.344-2.9-3-2.803c-3.998,0.232-7.994,0.496-11.988,0.788c-1.654,0.122-2.996,1.54-2.996,3.161v103.018
			c0,1.621,1.343,2.935,3,2.936h12c1.656,0.001,3-1.329,3-2.972C251.353,221.42,251.348,178.711,251.343,148.002z"/>
	</g>
</g>
<g id="Rectangle_5_">
	<g>
		<path fill-rule="evenodd" clip-rule="evenodd" fill="#B37230" d="M130.358,148.102l18,1v-23l-18,1V148.102z M233.358,126.102v23
			l18-1v-21L233.358,126.102z"/>
	</g>
</g>
<g id="Shape_1_">
	<g>
		<path fill-rule="evenodd" clip-rule="evenodd" fill="#713F19" d="M197.73,109.102h-16.744c-8.618,0-15.628,7.034-15.628,15.68
			v8.96c0,1.855,1.5,3.36,3.349,3.36c1.85,0,3.349-1.505,3.349-3.36v-8.96c0-4.94,4.006-8.96,8.93-8.96h16.744
			c4.924,0,8.931,4.02,8.931,8.96v8.96c0,1.855,1.5,3.36,3.349,3.36c1.85,0,3.349-1.505,3.349-3.36v-8.96
			C213.358,116.136,206.348,109.102,197.73,109.102z"/>
	</g>
</g>
<g id="Rectangle_4_">
	<g>
		<path fill-rule="evenodd" clip-rule="evenodd" fill="#1E2F30" d="M173.358,133.102h-9c-1.105,0.01-2,0.98-2,2.164v1.082
			c0,1.183,0.892,2.281,1.995,2.395c2.998,0.283,6.012,0.283,9.009,0c1.104-0.114,1.995-1.211,1.996-2.395v-1.082
			C175.359,134.082,174.463,133.112,173.358,133.102z M214.358,133.102h-9c-1.105,0.01-2,0.98-2,2.164v1.082
			c0,1.183,0.892,2.281,1.995,2.395c2.998,0.283,6.012,0.283,9.009,0c1.104-0.114,1.995-1.211,1.996-2.395v-1.082
			C216.359,134.082,215.463,133.112,214.358,133.102z"/>
	</g>
</g>
<g id="body_2_">
	<g>
		<path fill-rule="evenodd" clip-rule="evenodd" fill="#FFFFFF" d="M231.358,138.102c-5.667-0.667-10.153-3.83-15-9
			c-5-5.333-8,5-8,5s0.667,5.333,8,12c7.333,6.667,22.333,8.667,25,8c2.666-0.667,3-15,3-15S237.024,138.769,231.358,138.102z"/>
	</g>
</g>
<g id="body_1_">
	<g>
		<path fill-rule="evenodd" clip-rule="evenodd" fill="#C1DCDE" d="M226.017,138.337c-0.776-0.35-1.398-0.688-1.9-0.994
			l-6.911,6.911c0.543,0.539,1.238,1.141,2.066,1.756C221.039,143.906,224.86,139.395,226.017,138.337z M222.358,136.102
			c-0.846-0.607-1.604-0.942-3,1c-1.396,1.942-4.26,4.77-4,5c0.066,0.059,0.328,0.46,0.834,1.061l6.232-7.011
			C222.403,136.135,222.379,136.116,222.358,136.102z M226.925,138.721l-5.914,8.449c0.598,0.358,1.256,0.71,1.966,1.049l6.118-8.74
			C228.282,139.228,227.558,138.973,226.925,138.721z M237.151,140.93l-2.609,10.438c0.746,0.111,1.388,0.181,1.946,0.214
			l2.664-10.656C238.57,140.948,237.907,140.958,237.151,140.93z M242.358,141.102c-0.203-0.23-0.595-0.281-1.183-0.271
			l-2.663,10.651c0.989-0.215,1.464-0.704,1.846-1.381C241.341,148.36,243.108,141.954,242.358,141.102z M234.175,140.653
			l-3.338,10.014c0.68,0.148,1.291,0.271,1.872,0.383l3.393-10.179C235.507,140.825,234.867,140.756,234.175,140.653z
			 M231.358,140.102c-0.155-0.038-0.293-0.077-0.442-0.115l-4.75,9.5c0.69,0.223,1.42,0.429,2.193,0.614
			c0.118,0.028,0.22,0.051,0.335,0.078l3.59-9.872C231.979,140.243,231.678,140.18,231.358,140.102z"/>
	</g>
</g>
<g id="Ellipse_3_">
	<g>
		<circle fill-rule="evenodd" clip-rule="evenodd" fill="#FFFFFF" cx="167.858" cy="175.602" r="14.5"/>
	</g>
</g>
<g id="Rectangle_3_">
	<g>
		<path fill-rule="evenodd" clip-rule="evenodd" fill="#FFFFFF" d="M204.664,223.094l-30.148-8.078
			c-1.233-0.331-2.501,0.4-2.832,1.635l-4.787,17.865c-0.33,1.233,0.402,2.502,1.635,2.832l30.148,8.078
			c1.233,0.33,2.501-0.402,2.832-1.635l4.787-17.866C206.629,224.692,205.897,223.424,204.664,223.094z"/>
	</g>
</g>
<g id="Rectangle_2_">
	<g>
		<path fill-rule="evenodd" clip-rule="evenodd" fill="#1E2F30" d="M202.949,225.028l-27.915-7.48
			c-0.617-0.164-1.25,0.201-1.416,0.818l-4.188,15.633c-0.166,0.616,0.201,1.25,0.817,1.415l27.915,7.479
			c0.617,0.166,1.25-0.2,1.416-0.816l4.189-15.633C203.931,225.827,203.565,225.194,202.949,225.028z"/>
	</g>
</g>
<g id="sign_6_">
	<g>
		<polygon fill-rule="evenodd" clip-rule="evenodd" fill="#FFFFFF" points="196.986,229.415 189.608,234.618 186.638,227.838 
			183.806,229.473 181.952,222.993 171.961,233.48 197.644,240.362 		"/>
	</g>
</g>
<g id="Ellipse_2_">
	<g>
		<circle fill-rule="evenodd" clip-rule="evenodd" fill="#85271A" cx="167.858" cy="175.602" r="12.5"/>
	</g>
</g>
<g id="sign_5_">
	<g>
		<path fill-rule="evenodd" clip-rule="evenodd" fill="#FFFFFF" d="M228.98,194.977l-21.824-20.992
			c-0.417-0.4-1.029-0.553-1.606-0.398s-1.032,0.592-1.192,1.148l-8.404,29.092c-0.161,0.556-0.002,1.144,0.414,1.545
			c0.417,0.401,1.029,0.553,1.606,0.398l30.228-8.099c0.578-0.155,1.031-0.592,1.192-1.148
			C229.554,195.967,229.396,195.378,228.98,194.977z M199.944,201.929l6.848-23.705l17.783,17.104L199.944,201.929z"/>
	</g>
</g>
<g id="Ellipse_1_">
	<g>
		<polygon fill-rule="evenodd" clip-rule="evenodd" fill="#FEBB15" points="205.731,174.795 197.896,204.034 227.135,196.199 		"/>
	</g>
</g>
<g id="Rectangle_1_">
	<g>
		<path fill-rule="evenodd" clip-rule="evenodd" fill="#1E2F30" d="M207.011,193.297c-0.456-0.833-1.582-1.251-2.716-0.948
			c-1.134,0.304-1.9,1.229-1.878,2.179l-0.047,0.013l1.675,6.251l4.689-1.256l-1.675-6.252L207.011,193.297z M220.19,192.279
			l-3.126,0.838l-0.628-2.345l-0.091-0.34l-0.118-0.442l-0.209-0.781c-0.116-0.431-0.559-0.687-0.991-0.572l-0.733-2.735
			c-0.058-0.216-0.28-0.344-0.496-0.286l-0.782,0.209c-0.216,0.058-0.344,0.28-0.286,0.495l0.733,2.735
			c-0.432,0.116-0.688,0.559-0.572,0.991l0.209,0.781l-0.782,0.209l-2.094-7.814l-2.792-2.602l-0.223,0.729l-0.795-2.969
			l-0.782,0.209l1.131,4.22l-0.446,1.459l1.466,5.47l-1.563,0.419l2.513,9.378l1.563-0.419l3.907-1.047v0l3.907-1.046l3.126-0.838
			L220.19,192.279z"/>
	</g>
</g>
<g id="sign_1_">
	<g>
		<path fill-rule="evenodd" clip-rule="evenodd" fill="#FEBB15" d="M163.24,170.647c-0.807-0.335-1.661,0.676-1.761,1.291
			c-0.125,0.772-0.516,2.006-0.851,2.699c-0.27,0.558-0.156,1.894,0.688,2.111c0.844,0.218,6.513-1.192,6.513-1.192
			S164.047,170.982,163.24,170.647z M162.539,180.695c0.671,0.36,1.678,1.11,2.228,1.668c0.432,0.438,1.699,0.739,2.161-0.021
			c0.462-0.76,0.913-6.751,0.913-6.751s-5.391,2.293-5.95,2.98C161.333,179.258,162.002,180.408,162.539,180.695z M167.875,175.591
			c0,0,0.451,5.991,0.913,6.751c0.462,0.759,1.729,0.458,2.161,0.021c0.55-0.558,1.557-1.308,2.228-1.668
			c0.537-0.288,1.207-1.437,0.648-2.125C173.267,177.884,167.875,175.591,167.875,175.591z M175.088,174.637
			c-0.335-0.692-0.726-1.926-0.851-2.699c-0.1-0.615-0.954-1.627-1.761-1.291c-0.807,0.335-4.589,4.909-4.589,4.909
			s5.669,1.41,6.513,1.192C175.244,176.531,175.358,175.195,175.088,174.637z M169.235,168.194c-0.762,0.118-1.992,0.118-2.754,0
			c-0.599-0.092-1.796,0.432-1.736,1.326c0.06,0.895,3.113,6.015,3.113,6.015s3.054-5.12,3.113-6.015
			C171.031,168.626,169.834,168.102,169.235,168.194z"/>
	</g>
</g>
<g id="wing_1_">
	<g>
		<path fill-rule="evenodd" clip-rule="evenodd" fill="#79C143" d="M209.358,97.102c-1.435-3.163-24.5-18.75-49-11
			c-5.25,1.661-9,3.994-8,15c0.75,8.25,3,8.6,7,15c4,6.4,14,10,14,10s3.667-2.833,6-14c1.007-4.82,1-7,1-7s7.839,12.063,12,12
			c5.5-0.083,5-12,5-12s7.117,9.93,10,10C210.293,115.173,213.441,106.102,209.358,97.102z"/>
	</g>
</g>
</svg>
