<?xml version="1.0" encoding="utf-8"?>
<!-- Generator: Adobe Illustrator 15.1.0, SVG Export Plug-In  -->
<!DOCTYPE svg PUBLIC "-//W3C//DTD SVG 1.1//EN" "http://www.w3.org/Graphics/SVG/1.1/DTD/svg11.dtd" [
	<!ENTITY ns_flows "http://ns.adobe.com/Flows/1.0/">
]>
<svg version="1.1"
	 xmlns="http://www.w3.org/2000/svg" xmlns:xlink="http://www.w3.org/1999/xlink" xmlns:a="http://ns.adobe.com/AdobeSVGViewerExtensions/3.0/"
	 x="0px" y="0px" width="257px" height="274px" viewBox="0 0 257 274" enable-background="new 0 0 257 274" xml:space="preserve">
<defs>
</defs>
<g id="shadow_1_" opacity="0.2">
	<g>
		<ellipse fill-rule="evenodd" clip-rule="evenodd" fill="#010101" cx="95.979" cy="251.999" rx="71" ry="22"/>
	</g>
</g>
<g id="body_2_">
	<g>
		<path fill-rule="evenodd" clip-rule="evenodd" fill="#1E2F30" d="M56.98,245.998c-10.136-2.211-8.245-7.062-10.698-0.71
			c-1.824,4.723-1.337,11.991,11.12,14.709c3.151,0.688,5.742,0.464,7.862-0.247c8.229-1.705,10.144-10.087,10.144-10.087
			s-2.844-0.483-9.674-1.338C63.278,247.551,60.333,246.729,56.98,245.998z M137.676,245.288c-2.452-6.352-0.561-1.501-10.697,0.71
			c-3.353,0.731-6.298,1.553-8.755,2.327c-6.829,0.854-9.673,1.338-9.673,1.338s1.914,8.382,10.144,10.087
			c2.119,0.711,4.711,0.935,7.861,0.247C139.013,257.279,139.5,250.011,137.676,245.288z M114.979,51.999
			c-2.461-3.245-14,1.999-14,1.999s7.58-12.433,4-14c-3.58-1.565-25.734,15.309-28,34.001s27.96,19.154,26,6
			C101.019,66.844,117.44,55.243,114.979,51.999z"/>
	</g>
</g>
<g id="wing_2_">
	<g>
		<path fill-rule="evenodd" clip-rule="evenodd" fill="#79C143" d="M254.857,111.905c-1.776-3.297-5.313,9.272-26.095,19.086
			c33.145-23.678,31.543-47.442,22.313-55.997c-2.729-2.529-2.033,10.329-18.211,26.195c22.816-29.776,15.271-50.995,4.521-56.669
			c-2.418-1.275-0.903,4.994-4.494,16.146c3.391-22.172-6.585-34.258-15.976-36.396c-5.944-1.354,16.73,28.464-36.525,86.952
			c-3.552,3.9-7.391,9.682-10.799,15.889c-4.778,4.487-9.574,9.796-13.444,14.855c-0.146,0.093-0.289,0.187-0.435,0.28
			c-25.27,3.345-61.908,18.582-19.744,21.941c1.494,1.21,4.945,1.532,10.978,0.55c4.14,0.107,8.752,0.14,13.915,0.08
			C248.78,163.801,262.942,126.91,254.857,111.905z"/>
	</g>
</g>
<g id="body_1_">
	<g>
		<path fill-rule="evenodd" clip-rule="evenodd" fill="#69BD45" d="M94.979,63.748c-58.5,0-99,93.501-80,150.001
			s140.5,51.999,160-2.001S153.479,63.748,94.979,63.748z"/>
	</g>
</g>
<g id="band_3_">
	<g>
		<path fill-rule="evenodd" clip-rule="evenodd" fill="#1E2F30" d="M146.979,110c-9.696-8.041-26.905-6.805-34,1
			c-7.095,7.805,1.817,29.879,23,27C157.162,135.12,156.676,118.041,146.979,110z"/>
	</g>
</g>
<g id="band_2_">
	<g>
		<path fill-rule="evenodd" clip-rule="evenodd" fill="#1E2F30" d="M159.289,106.11c-0.621-0.543-1.57-0.484-2.121,0.133
			c-5.422,6.1-17.824,16.645-25.956,12.88c-8.968-4.148-26.437-19.236-35.131-42.058c-0.293-0.769-1.157-1.159-1.937-0.867
			c-0.776,0.291-1.168,1.151-0.875,1.921c9.01,23.646,27.275,39.357,36.672,43.705c1.65,0.764,3.372,1.095,5.119,1.095
			c10.929,0,22.849-13.001,24.363-14.705C159.972,107.597,159.912,106.654,159.289,106.11z"/>
	</g>
</g>
<g id="hat_1_">
	<g>
		<path fill-rule="evenodd" clip-rule="evenodd" fill="#1E2F30" d="M189.93,50.598c-3.81-3.814-12.834,1.205-19.853,3.013
			c-7.019,1.807-19.451-0.201-25.868-11.445c-6.242-10.937-14.578-40.479-46.583-42.087C97.124,0.027,96.609,0,96.081,0
			c-0.206,0-0.398,0.015-0.602,0.017C95.276,0.015,95.083,0,94.878,0c-0.528,0-1.043,0.027-1.545,0.078
			C61.328,1.686,52.992,31.229,46.75,42.165C40.333,53.409,27.9,55.417,20.881,53.61c-7.019-1.808-16.042-6.827-19.853-3.013
			c-5.049,5.057,9.625,18.473,19.251,27.709c5.281,5.067,10.868,12.91,18.242,19.161c13.403-7.648,33.802-12.535,56.657-12.535
			c23.061,0,43.614,4.978,57.011,12.745c7.498-6.283,13.149-14.247,18.489-19.371C180.305,69.07,194.979,55.654,189.93,50.598z"/>
	</g>
</g>
<g id="skull_x26_bones_1_">
	<g>
		<path fill-rule="evenodd" clip-rule="evenodd" fill="#FFFFFF" d="M118.392,54.511c-2.151-1.212-4.908-0.481-6.157,1.63
			c-0.266,0.45-0.424,0.928-0.516,1.409l-4.404-2.491c1.249-2.098,1.978-4.533,1.978-7.143c0-0.911-0.095-1.798-0.262-2.66
			l3.402-1.905c0.093,0.479,0.251,0.952,0.518,1.398c1.254,2.099,4.01,2.828,6.157,1.631c2.147-1.198,2.872-3.87,1.618-5.968
			c-0.847-1.418-2.381-2.191-3.949-2.187c0.788-1.31,0.862-2.98,0.015-4.397c-1.253-2.099-4.01-2.828-6.157-1.631
			c-2.147,1.198-2.872,3.87-1.618,5.968c0.267,0.446,0.612,0.816,0.994,1.134l-2.68,1.501c-2.481-4.189-7.07-7.011-12.337-7.011
			c-5.365,0-10.034,2.924-12.479,7.243l-2.569-1.453c0.382-0.319,0.727-0.691,0.993-1.141c1.25-2.112,0.519-4.806-1.632-6.019
			c-2.151-1.211-4.907-0.481-6.157,1.631c-0.844,1.427-0.766,3.111,0.025,4.433c-1.569-0.008-3.102,0.769-3.946,2.195
			c-1.25,2.112-0.519,4.807,1.632,6.019s4.907,0.481,6.157-1.63c0.266-0.45,0.424-0.927,0.516-1.409l3.377,1.91
			c-0.13,0.766-0.213,1.546-0.213,2.348c0,2.469,0.645,4.788,1.771,6.808l-4.174,2.338c-0.093-0.479-0.252-0.953-0.519-1.399
			c-1.253-2.098-4.01-2.827-6.157-1.63c-2.147,1.198-2.872,3.87-1.619,5.968c0.847,1.418,2.381,2.191,3.949,2.187
			c-0.788,1.31-0.862,2.98-0.016,4.397c1.253,2.099,4.01,2.828,6.157,1.631c2.147-1.198,2.871-3.87,1.618-5.968
			c-0.267-0.446-0.612-0.816-0.995-1.134l4.769-2.671c0.545,0.481,1.134,0.914,1.749,1.31v3.94c0,2.21,1.791,4,4,4h6.706
			c2.209,0,4-1.79,4-4v-3.441c0.796-0.439,1.55-0.943,2.244-1.52l5.123,2.897c-0.382,0.319-0.727,0.691-0.993,1.141
			c-1.25,2.112-0.519,4.807,1.632,6.019c2.151,1.212,4.907,0.481,6.157-1.63c0.844-1.428,0.766-3.111-0.025-4.434
			c1.569,0.008,3.102-0.768,3.947-2.195C121.273,58.417,120.542,55.723,118.392,54.511z M89.276,49.126
			c-2.03,0-3.676-1.626-3.676-3.633c0-2.006,1.646-3.632,3.676-3.632s3.676,1.626,3.676,3.632
			C92.953,47.5,91.307,49.126,89.276,49.126z M99.897,49.126c-2.03,0-3.676-1.626-3.676-3.633c0-2.006,1.646-3.632,3.676-3.632
			c2.031,0,3.677,1.626,3.677,3.632C103.574,47.5,101.928,49.126,99.897,49.126z"/>
	</g>
</g>
<g id="machete_3_">
	<g>
		<path fill-rule="evenodd" clip-rule="evenodd" fill="#FFFFFF" d="M157.979,146c-19.667,12.333-72,38-72,38l9.231,10.119
			c0,0,69.721-26.369,94.054-35.703c24.333-9.333,25.139-53.131,25.139-53.131S177.646,133.666,157.979,146z"/>
	</g>
</g>
<g id="machete_2_">
	<g>
		<path fill-rule="evenodd" clip-rule="evenodd" fill="#1E2F30" d="M102.704,195.949l-12.203-20.4
			c-0.899-1.503-2.845-1.992-4.347-1.094l-4.08,2.44c-1.502,0.898-1.992,2.846-1.093,4.348l2.013,3.366l-33.339,17.474
			c-1.61,0.844-2.282,2.785-1.526,4.35l3.08,6.373c0.756,1.563,2.695,2.244,4.356,1.507l35.719-15.846l1.901,3.178
			c0.898,1.502,2.845,1.991,4.347,1.092l4.08-2.439C103.114,199.397,103.603,197.451,102.704,195.949z"/>
	</g>
</g>
<g id="eye_1_">
	<g>
		<ellipse fill-rule="evenodd" clip-rule="evenodd" fill="#FFFFFF" cx="60.979" cy="121.999" rx="22" ry="26"/>
	</g>
</g>
<g id="beak_1_">
	<g>
		<path fill-rule="evenodd" clip-rule="evenodd" fill="#FEBB15" d="M94.979,99.999c-11.046,0-20,13.432-20,30s20,30,20,30
			s20-13.432,20-30S106.024,99.999,94.979,99.999z"/>
	</g>
</g>
<g id="pupils_1_">
	<g>
		<ellipse fill-rule="evenodd" clip-rule="evenodd" fill="#1E2F30" cx="64.941" cy="124.999" rx="5.962" ry="7"/>
	</g>
</g>
<g id="wing_1_">
	<g>
		<path fill-rule="evenodd" clip-rule="evenodd" fill="#79C143" d="M98.304,198.834c-12.451-3.847-35.146-8.771-56.435-21.964
			c-16.746-10.377-26.549-26.875-27.249-28.45c-2.1,5.775-2.736,8.03-3.936,13.412c-2.836,12.721-3.637,28.899-1.495,37.622
			c3.517,14.323,15.792,21.954,26.01,23.425c9.335,1.344,15.688-2.763,15.688-2.763l-16.112-17.271
			c5.368,5.453,14.707,14.07,21.074,15.146c22.604,3.82,23.839-2.399,23.839-2.399s-3.855-2.836-9.694-7.074
			C86.488,213.906,117.677,204.82,98.304,198.834z"/>
	</g>
</g>
</svg>
