<?xml version="1.0" encoding="utf-8"?>
<!-- Generator: Adobe Illustrator 15.1.0, SVG Export Plug-In  -->
<!DOCTYPE svg PUBLIC "-//W3C//DTD SVG 1.1//EN" "http://www.w3.org/Graphics/SVG/1.1/DTD/svg11.dtd" [
	<!ENTITY ns_flows "http://ns.adobe.com/Flows/1.0/">
]>
<svg version="1.1"
	 xmlns="http://www.w3.org/2000/svg" xmlns:xlink="http://www.w3.org/1999/xlink" xmlns:a="http://ns.adobe.com/AdobeSVGViewerExtensions/3.0/"
	 x="0px" y="0px" width="199px" height="234px" viewBox="0 0 199 234" enable-background="new 0 0 199 234" xml:space="preserve">
<defs>
</defs>
<g id="shadow_1_" opacity="0.2">
	<g>
		<ellipse fill-rule="evenodd" clip-rule="evenodd" fill="#856B6B" cx="115.162" cy="212.101" rx="71" ry="22"/>
	</g>
</g>
<g id="body_2_">
	<g>
		<path fill-rule="evenodd" clip-rule="evenodd" fill="#1E2F30" d="M134.162,12.101c-2.463-3.244-14,2-14,2s7.58-12.433,4-14
			s-25.734,15.307-28,34c-2.266,18.693,27.959,19.155,26,6C120.201,26.946,136.623,15.345,134.162,12.101z M76.163,206.101
			c-10.136-2.212-8.245-7.062-10.697-0.71c-1.823,4.723-1.337,11.99,11.12,14.709c3.15,0.688,5.742,0.464,7.862-0.248
			c8.23-1.704,10.144-10.086,10.144-10.086s-2.846-0.484-9.674-1.338C82.461,207.654,79.515,206.832,76.163,206.101z
			 M156.859,205.391c-2.453-6.352-0.563-1.502-10.697,0.71c-3.354,0.731-6.299,1.554-8.756,2.327
			c-6.828,0.854-9.672,1.338-9.672,1.338s1.912,8.382,10.143,10.086c2.119,0.712,4.711,0.936,7.861,0.248
			C158.195,217.381,158.684,210.113,156.859,205.391z"/>
	</g>
</g>
<g id="body_1_">
	<g>
		<path fill-rule="evenodd" clip-rule="evenodd" fill="#69BD45" d="M114.162,23.851c-58.5,0-99,93.5-80,150c19,56.5,140.5,52,160-2
			C213.662,117.85,172.662,23.851,114.162,23.851z"/>
	</g>
</g>
<g id="wing_2_">
	<g>
		<path fill-rule="evenodd" clip-rule="evenodd" fill="#79C143" d="M192.313,99.668c-0.578-0.711-1.141-1.426-1.768-2.128
			c0,0-25.635,28.076-18.383,62.561c3.902,18.565,15.746,18.41,19.123,17.97c1.096-2.003,2.096-4.057,2.877-6.22
			C201.637,151.15,200.195,124.577,192.313,99.668z"/>
	</g>
</g>
<g id="eye_2_">
	<g>
		<ellipse fill-rule="evenodd" clip-rule="evenodd" fill="#FFFFFF" cx="80.162" cy="82.101" rx="22" ry="26"/>
	</g>
</g>
<g id="eye_1_">
	<g>
		<ellipse fill-rule="evenodd" clip-rule="evenodd" fill="#FFFFFF" cx="149.162" cy="82.101" rx="21" ry="26"/>
	</g>
</g>
<g id="Rectangle_1_">
	<g>
		<path fill-rule="evenodd" clip-rule="evenodd" fill="#1E2F30" d="M73.113,142.409L53.94,35.108
			c-0.389-2.175-2.466-3.623-4.641-3.234l-0.984,0.176c-2.175,0.389-3.623,2.467-3.234,4.641l19.172,107.301
			c0.389,2.175,2.467,3.623,4.642,3.234l0.984-0.176C72.053,146.662,73.501,144.583,73.113,142.409z"/>
	</g>
</g>
<g id="umbrella_1_">
	<g>
		<path fill-rule="evenodd" clip-rule="evenodd" fill="#B93426" d="M100.232,32.894C79.614,4.097,50.109,5.952,50.109,5.952
			s-2.838-4.191-6.546-3.363c-3.705,0.826-4.503,5.206-4.503,5.206S12.301,14.703,1.519,51.108c-0.706,2.386-1.608,4.842-1.512,6.22
			c7.513-1.751,10.537,2.081,10.537,2.081s11.205-6.642,23.828,0.808c6.511-7.864,24.774-11.342,36.262-5.217
			c4.646-8.259,18.189-12.293,24.192-10.608c3.57-6.569,9.584-5.401,9.584-5.401S101.84,35.138,100.232,32.894z"/>
	</g>
</g>
<g id="Shape_1_">
	<g>
		<path fill-rule="evenodd" clip-rule="evenodd" fill="#FFFFFF" d="M19.977,26.955c-8.723,13.113-9.033,29.042-9.033,29.042
			c13.649-6.045,22.536,1.052,22.536,1.052s-0.757-12.957,0.877-23.521c2.274-14.704,7.768-24.752,7.768-24.752
			S30.386,11.305,19.977,26.955z M72.783,15.488c-13.606-7.93-25.736-7.591-25.736-7.591s7.942,9.805,13.538,18.914
			c6.017,9.795,9.495,24.715,9.495,24.715s5.255-10.386,23.555-10.304C93.635,41.221,86.39,23.418,72.783,15.488z"/>
	</g>
</g>
<g id="wing_1_">
	<g>
		<path fill-rule="evenodd" clip-rule="evenodd" fill="#79C143" d="M94.162,149.102c-3.078-0.308-6.259-0.208-10.616,0.322
			c0.206-0.109,0.409-0.21,0.616-0.322c13.556-7.394,12.787-21.957-1-14c-2.965,1.711-5.945,2.889-9.017,3.52
			c16.187-7.337,15.304-24.058,10.017-21.52c-8.333,4-8.333,10-27,10c-14,0-21-20.667-23-20c-0.262,0.087-4.45,7.266-6.692,18.736
			c-2.438,12.468-3.304,30.029,4.692,40.264c12.199,15.615,26.491,10.443,36.658,9.247c10.167-1.196,28.839-16.302,21.342-14.247
			c-1.759,0.481-3.46,0.938-5.114,1.362C94.287,157.736,98.689,149.554,94.162,149.102z"/>
	</g>
</g>
<g id="beak_1_">
	<g>
		<path fill-rule="evenodd" clip-rule="evenodd" fill="#FEBB15" d="M114.162,60.101c-11.047,0-20,13.432-20,30c0,16.568,20,30,20,30
			s20-13.432,20-30C134.162,73.533,125.207,60.101,114.162,60.101z"/>
	</g>
</g>
<g id="pupils_1_">
	<g>
		<path fill-rule="evenodd" clip-rule="evenodd" fill="#1E2F30" d="M144.199,65.101c-3.293,0-5.963,3.134-5.963,7
			c0,3.866,2.67,7,5.963,7s5.963-3.134,5.963-7C150.162,68.235,147.492,65.101,144.199,65.101z M82.125,65.101
			c-3.293,0-5.963,3.134-5.963,7c0,3.866,2.67,7,5.963,7c3.294,0,5.963-3.134,5.963-7C88.087,68.235,85.418,65.101,82.125,65.101z"
			/>
	</g>
</g>
</svg>
